<?xml version="1.0" encoding="UTF-8"?>
<svg version="1.1" xmlns="http://www.w3.org/2000/svg" width="251" height="251">
<path d="M0 0 C1.06914139 -0.00101212 1.06914139 -0.00101212 2.15988159 -0.00204468 C32.13026362 0.0430147 58.07174152 8.77001152 79.8125 30.1875 C99.04622588 49.74337315 107.87955963 75.14653649 107.80493164 102.24853516 C107.29100379 129.76457636 95.47113431 154.54869981 76.04345703 173.81103516 C64.17857672 184.87266194 48.18950718 193.30319994 32.5 197.25 C31.81599121 197.42587646 31.13198242 197.60175293 30.42724609 197.78295898 C21.55092612 199.7435604 12.59282769 199.58706899 3.54980469 199.56567383 C0.76977979 199.56252242 -2.0091691 199.5860072 -4.7890625 199.61132812 C-30.87568661 199.70451541 -55.0155886 192.09330477 -74.5 174.25 C-75.35207031 173.47914063 -76.20414063 172.70828125 -77.08203125 171.9140625 C-93.32255419 156.49679188 -105.32584309 133.92401127 -106.67700195 111.28417969 C-107.32192383 78.52934292 -100.67673352 52.42506863 -77.5 28.25 C-56.05526267 7.67699996 -29.08814674 0.02475516 0 0 Z " fill="#010101" transform="translate(125.5,25.75)"/>
<path d="M0 0 C5.28 0 10.56 0 16 0 C21.41243276 6.00407521 21.41243276 6.00407521 22.79321289 8.84277344 C23.10308136 9.46019409 23.41294983 10.07761475 23.73220825 10.71374512 C24.20507767 11.65981628 24.20507767 11.65981628 24.6875 12.625 C25.38127952 13.89944837 26.08114709 15.17060017 26.78686523 16.43847656 C28.21171494 19.01445114 29.60438298 21.60402793 30.97363281 24.20996094 C33.95659389 29.84945936 37.27367613 35.28466098 40.5625 40.75 C41.62870631 42.55587435 42.69276747 44.36301831 43.75390625 46.171875 C44.19033447 46.9153418 44.6267627 47.65880859 45.07641602 48.42480469 C45.38119873 48.94461914 45.68598145 49.46443359 46 50 C48.99536678 46.42254604 51.42588309 42.76898732 53.7578125 38.73046875 C54.4674594 37.506063 55.17717889 36.28169932 55.88696289 35.05737305 C56.25226105 34.42423187 56.6175592 33.7910907 56.993927 33.13876343 C58.13473499 31.17070575 59.28870961 29.21097418 60.44702148 27.25317383 C64.10331259 21.06228181 67.70347834 14.90913114 70.78491211 8.40429688 C72.5247039 5.38551043 74.8267673 2.7234182 77 0 C82.28 0 87.56 0 93 0 C93 27.39 93 54.78 93 83 C87.06 83 81.12 83 75 83 C74.67 67.49 74.34 51.98 74 36 C69.41906691 44.01339821 69.41906691 44.01339821 64.84765625 52.03222656 C63.59031753 54.22156417 62.31518606 56.40073114 61.02734375 58.57226562 C59.6617197 60.88119647 58.34973758 63.18520429 57.06640625 65.53710938 C52.48701308 73.37367655 52.48701308 73.37367655 48.484375 75.05957031 C45.52069213 75.34684346 43.74592839 75.15569377 41 74 C38.24129274 71.3884238 36.69542807 68.37114186 35 65 C29.98557051 55.72913617 24.62633544 47.00213671 19 38 C18.67 52.85 18.34 67.7 18 83 C12.06 83 6.12 83 0 83 C0 55.61 0 28.22 0 0 Z " fill="#FCFCFC" transform="translate(87,84)"/>
<path d="M0 0 C0.91330078 0.00451172 1.82660156 0.00902344 2.76757812 0.01367188 C4.99095738 0.0253126 7.21419121 0.04166149 9.4375 0.0625 C9.4375 0.3925 9.4375 0.7225 9.4375 1.0625 C8.5403125 1.16046875 7.643125 1.2584375 6.71875 1.359375 C-14.88255218 3.9479608 -33.65226163 9.87260433 -50.5625 24.0625 C-51.41070312 24.73667969 -52.25890625 25.41085938 -53.1328125 26.10546875 C-68.24493013 38.73048238 -77.44733401 56.30689137 -82.5625 75.0625 C-82.954375 76.320625 -83.34625 77.57875 -83.75 78.875 C-87.49713638 93.57530425 -86.77035831 110.61608767 -82.5625 125.0625 C-82.23378906 126.25875 -81.90507813 127.455 -81.56640625 128.6875 C-77.189957 143.22518609 -69.78240348 155.83853583 -59.5625 167.0625 C-58.88960937 167.82820312 -58.21671875 168.59390625 -57.5234375 169.3828125 C-40.53638459 187.64230383 -16.13455357 196.98003068 8.4375 198.0625 C8.4375 198.3925 8.4375 198.7225 8.4375 199.0625 C-20.98143298 199.77522107 -47.26462906 194.48229605 -69.5625 174.0625 C-70.41457031 173.29164063 -71.26664063 172.52078125 -72.14453125 171.7265625 C-88.38505419 156.30929188 -100.38834309 133.73651127 -101.73950195 111.09667969 C-102.38442383 78.34184292 -95.73923352 52.23756863 -72.5625 28.0625 C-52.90609244 9.2051334 -27.03851981 -0.25788757 0 0 Z " fill="#FD0619" transform="translate(120.5625,25.9375)"/>
<path d="M0 0 C1.05058594 0.00902344 2.10117188 0.01804687 3.18359375 0.02734375 C3.96863281 0.03894531 4.75367188 0.05054687 5.5625 0.0625 C5.5625 0.3925 5.5625 0.7225 5.5625 1.0625 C4.6653125 1.16046875 3.768125 1.2584375 2.84375 1.359375 C-18.75755218 3.9479608 -37.52726163 9.87260433 -54.4375 24.0625 C-55.28570312 24.73667969 -56.13390625 25.41085938 -57.0078125 26.10546875 C-72.11993013 38.73048238 -81.32233401 56.30689137 -86.4375 75.0625 C-86.829375 76.320625 -87.22125 77.57875 -87.625 78.875 C-91.37213638 93.57530425 -90.64535831 110.61608767 -86.4375 125.0625 C-86.10878906 126.25875 -85.78007813 127.455 -85.44140625 128.6875 C-81.064957 143.22518609 -73.65740348 155.83853583 -63.4375 167.0625 C-62.76460937 167.82820312 -62.09171875 168.59390625 -61.3984375 169.3828125 C-47.90935171 183.8823167 -29.37476386 192.36465797 -10.4375 197.0625 C-10.4375 197.3925 -10.4375 197.7225 -10.4375 198.0625 C-15.73845614 198.28308595 -20.32688424 197.58306652 -25.375 196.0625 C-26.47545654 195.73245972 -26.47545654 195.73245972 -27.59814453 195.39575195 C-52.84273112 187.42676396 -74.06019544 169.91538161 -86.6484375 146.63671875 C-89.34151454 141.25644476 -91.42777959 135.72554938 -93.4375 130.0625 C-93.76556641 129.29147949 -94.09363281 128.52045898 -94.43164062 127.72607422 C-102.49032839 106.38619957 -98.54688023 79.35843329 -89.8125 58.875 C-78.88238315 34.90041583 -58.98418928 16.32675029 -34.57421875 6.53125 C-23.67949671 2.47156006 -11.61921207 -0.13055294 0 0 Z " fill="#F9F4F4" transform="translate(124.4375,25.9375)"/>
<path d="M0 0 C1.05058594 0.00902344 2.10117188 0.01804687 3.18359375 0.02734375 C4.36115234 0.04474609 4.36115234 0.04474609 5.5625 0.0625 C5.5625 0.3925 5.5625 0.7225 5.5625 1.0625 C4.6653125 1.16046875 3.768125 1.2584375 2.84375 1.359375 C-6.83030768 2.5186629 -16.03433546 4.53969976 -25.4375 7.0625 C-26.7699565 7.39932128 -28.10278692 7.73473502 -29.4375 8.0625 C-29.7675 7.0725 -30.0975 6.0825 -30.4375 5.0625 C-27.75089217 4.41275795 -25.06331326 3.76761582 -22.375 3.125 C-21.62283203 2.94259766 -20.87066406 2.76019531 -20.09570312 2.57226562 C-13.38241441 0.97386355 -6.92833244 -0.07784643 0 0 Z " fill="#E5C7C9" transform="translate(124.4375,25.9375)"/>
</svg>
